<svg width="22" height="22" viewBox="0 0 22 22" fill="none" xmlns="http://www.w3.org/2000/svg">
<path d="M3.51357 3.66666H7.62941L8.95582 6.98316L6.82457 8.404C6.69907 8.48773 6.59617 8.60115 6.52501 8.73419C6.45385 8.86724 6.41663 9.01579 6.41666 9.16666C6.41941 9.25283 6.41666 9.16758 6.41666 9.16758V9.18683C6.41712 9.22782 6.41895 9.26879 6.42216 9.30966C6.42705 9.38544 6.43774 9.48627 6.45424 9.61216C6.48999 9.85966 6.55874 10.2007 6.69257 10.6022C6.96207 11.4088 7.49007 12.4529 8.51857 13.4814C9.54707 14.5099 10.5912 15.0379 11.3969 15.3074C11.7993 15.4412 12.1394 15.5091 12.3887 15.5457C12.5294 15.5662 12.6711 15.5784 12.8132 15.5824L12.8251 15.5833H12.8324C12.8324 15.5833 12.9351 15.5778 12.8333 15.5833C13.0035 15.5832 13.1703 15.5358 13.3151 15.4462C13.4598 15.3567 13.5767 15.2287 13.6528 15.0764L14.267 13.8481L18.3333 14.5264V18.4864C16.3982 18.766 11.1714 19.0419 7.06474 14.9352C2.95807 10.8286 3.23307 5.60083 3.51357 3.66666ZM8.31691 9.61216L9.97332 8.50849C10.3233 8.27509 10.5823 7.92844 10.707 7.52671C10.8316 7.12498 10.8144 6.69259 10.6581 6.30208L9.33166 2.98558C9.19554 2.64541 8.96062 2.35383 8.65721 2.14844C8.35379 1.94306 7.9958 1.8333 7.62941 1.83333H3.46591C2.63266 1.83333 1.84891 2.41175 1.71232 3.31558C1.40066 5.37075 0.978074 11.4409 5.76857 16.2314C10.5591 21.0219 16.6292 20.5984 18.6844 20.2877C19.5882 20.1502 20.1667 19.3673 20.1667 18.5341V14.5264C20.1667 14.0924 20.0128 13.6725 19.7323 13.3413C19.4518 13.0102 19.063 12.7892 18.6349 12.7178L14.5686 12.0404C14.1818 11.9759 13.7846 12.037 13.4351 12.2148C13.0857 12.3927 12.8025 12.6779 12.6271 13.0286L12.3099 13.6638C12.1978 13.6359 12.0868 13.6038 11.9772 13.5676C11.4088 13.3787 10.6196 12.9901 9.81474 12.1852C9.00991 11.3804 8.62124 10.5912 8.43241 10.0219C8.38789 9.88718 8.34965 9.75045 8.31782 9.61216H8.31691Z" fill="#040404"/>
</svg>
