<svg width="22" height="22" viewBox="0 0 22 22" fill="none" xmlns="http://www.w3.org/2000/svg">
<path d="M11 18.3333C12.9449 18.3333 14.8102 17.5607 16.1855 16.1855C17.5607 14.8102 18.3333 12.9449 18.3333 11C18.3333 9.05509 17.5607 7.18983 16.1855 5.81456C14.8102 4.43929 12.9449 3.66668 11 3.66668C9.05509 3.66668 7.18983 4.43929 5.81456 5.81456C4.43929 7.18983 3.66668 9.05509 3.66668 11C3.66668 12.9449 4.43929 14.8102 5.81456 16.1855C7.18983 17.5607 9.05509 18.3333 11 18.3333ZM11 1.83334C12.2038 1.83334 13.3958 2.07045 14.5079 2.53111C15.6201 2.99178 16.6306 3.66699 17.4818 4.5182C18.333 5.3694 19.0082 6.37993 19.4689 7.49208C19.9296 8.60423 20.1667 9.79623 20.1667 11C20.1667 13.4312 19.2009 15.7627 17.4818 17.4818C15.7627 19.2009 13.4312 20.1667 11 20.1667C5.93084 20.1667 1.83334 16.0417 1.83334 11C1.83334 8.56886 2.79911 6.23728 4.5182 4.5182C6.23728 2.79911 8.56886 1.83334 11 1.83334ZM11.4583 6.41668V11.2292L15.5833 13.6767L14.8958 14.8042L10.0833 11.9167V6.41668H11.4583Z" fill="#040404"/>
</svg>
