<svg width="20" height="20" viewBox="0 0 20 20" fill="none" xmlns="http://www.w3.org/2000/svg">
<path d="M10.9423 0.833328C11.9736 0.836078 12.497 0.841578 12.9489 0.854412L13.1268 0.860828C13.3321 0.868162 13.5347 0.877328 13.7794 0.888328C14.7548 0.934162 15.4203 1.08816 16.0042 1.31458C16.6092 1.54741 17.1188 1.86274 17.6285 2.37149C18.0948 2.82958 18.4555 3.38393 18.6854 3.99583C18.9118 4.57974 19.0658 5.24524 19.1117 6.22149C19.1227 6.46533 19.1318 6.66791 19.1392 6.87416L19.1447 7.052C19.1584 7.503 19.1639 8.02641 19.1658 9.05766L19.1667 9.7415V10.9423C19.1689 11.6109 19.1619 12.2796 19.1456 12.948L19.1401 13.1258C19.1328 13.3321 19.1236 13.5347 19.1126 13.7785C19.0668 14.7547 18.9109 15.4193 18.6854 16.0042C18.4555 16.6161 18.0948 17.1704 17.6285 17.6285C17.1704 18.0948 16.6161 18.4555 16.0042 18.6854C15.4203 18.9118 14.7548 19.0658 13.7794 19.1117L13.1268 19.1392L12.9489 19.1447C12.497 19.1575 11.9736 19.1639 10.9423 19.1657L10.2585 19.1667H9.0586C8.38967 19.169 7.72074 19.162 7.05201 19.1456L6.87418 19.1401C6.65657 19.1318 6.43901 19.1224 6.22151 19.1117C5.24618 19.0658 4.58068 18.9118 3.99585 18.6854C3.38427 18.4554 2.83025 18.0947 2.37243 17.6285C1.9058 17.1705 1.54478 16.6161 1.3146 16.0042C1.08818 15.4202 0.934179 14.7547 0.888346 13.7785L0.860846 13.1258L0.856263 12.948C0.839365 12.2796 0.831725 11.611 0.833346 10.9423V9.05766C0.830809 8.38905 0.837532 7.72043 0.853513 7.052L0.859929 6.87416C0.867263 6.66791 0.876429 6.46533 0.887429 6.22149C0.933263 5.24524 1.08726 4.58066 1.31368 3.99583C1.5444 3.38368 1.90605 2.82931 2.37335 2.37149C2.8309 1.90541 3.3846 1.54473 3.99585 1.31458C4.58068 1.08816 5.24526 0.934162 6.22151 0.888328C6.46535 0.877328 6.66885 0.868162 6.87418 0.860828L7.05201 0.855328C7.72044 0.839042 8.38906 0.832013 9.05768 0.834245L10.9423 0.833328ZM10 5.41666C8.78444 5.41666 7.61865 5.89955 6.75911 6.75909C5.89957 7.61863 5.41668 8.78442 5.41668 10C5.41668 11.2156 5.89957 12.3814 6.75911 13.2409C7.61865 14.1004 8.78444 14.5833 10 14.5833C11.2156 14.5833 12.3814 14.1004 13.2409 13.2409C14.1005 12.3814 14.5833 11.2156 14.5833 10C14.5833 8.78442 14.1005 7.61863 13.2409 6.75909C12.3814 5.89955 11.2156 5.41666 10 5.41666ZM10 7.25C10.3611 7.24993 10.7188 7.32101 11.0524 7.45915C11.3861 7.5973 11.6893 7.79981 11.9447 8.05513C12.2001 8.31045 12.4027 8.61357 12.541 8.94719C12.6792 9.28082 12.7504 9.6384 12.7505 9.99954C12.7505 10.3607 12.6795 10.7183 12.5413 11.052C12.4032 11.3856 12.2007 11.6888 11.9453 11.9442C11.69 12.1996 11.3869 12.4022 11.0533 12.5405C10.7197 12.6787 10.3621 12.7499 10.0009 12.75C9.27158 12.75 8.57211 12.4603 8.05639 11.9445C7.54066 11.4288 7.25093 10.7293 7.25093 10C7.25093 9.27065 7.54066 8.57118 8.05639 8.05545C8.57211 7.53973 9.27158 7.25 10.0009 7.25M14.8134 4.04166C14.5095 4.04166 14.2181 4.16238 14.0032 4.37727C13.7883 4.59215 13.6676 4.8836 13.6676 5.1875C13.6676 5.49139 13.7883 5.78284 14.0032 5.99772C14.2181 6.21261 14.5095 6.33333 14.8134 6.33333C15.1173 6.33333 15.4088 6.21261 15.6237 5.99772C15.8385 5.78284 15.9593 5.49139 15.9593 5.1875C15.9593 4.8836 15.8385 4.59215 15.6237 4.37727C15.4088 4.16238 15.1173 4.04166 14.8134 4.04166Z" fill="#FE5F32"/>
</svg>
