<svg width="22" height="22" viewBox="0 0 22 22" fill="none" xmlns="http://www.w3.org/2000/svg">
<path d="M11 2.75001C9.29819 2.75001 7.66609 3.42605 6.46273 4.6294C5.25937 5.83276 4.58333 7.46487 4.58333 9.16667C4.58333 11.7902 6.21683 14.3211 8.00983 16.2818C8.92663 17.2807 9.92698 18.1994 11 19.0282C11.1601 18.9053 11.348 18.7556 11.5638 18.579C12.4252 17.8716 13.236 17.1046 13.9902 16.2837C15.7832 14.3211 17.4167 11.7911 17.4167 9.16667C17.4167 7.46487 16.7406 5.83276 15.5373 4.6294C14.3339 3.42605 12.7018 2.75001 11 2.75001ZM11 21.2795L10.4802 20.922L10.4775 20.9202L10.472 20.9156L10.4537 20.9028L10.3849 20.8542L10.1374 20.6736C8.88329 19.7311 7.71822 18.6755 6.65683 17.5203C4.78317 15.4688 2.75 12.4997 2.75 9.16576C2.75 6.97772 3.61919 4.8793 5.16637 3.33213C6.71354 1.78495 8.81196 0.915756 11 0.915756C13.188 0.915756 15.2865 1.78495 16.8336 3.33213C18.3808 4.8793 19.25 6.97772 19.25 9.16576C19.25 12.4997 17.2168 15.4697 15.3432 17.5184C14.2821 18.6737 13.1173 19.7292 11.8635 20.6718C11.7591 20.7498 11.6536 20.8265 11.5473 20.9018L11.528 20.9147L11.5225 20.9193L11.5207 20.9202L11 21.2795ZM11 7.33334C10.5138 7.33334 10.0475 7.52649 9.70364 7.87031C9.35982 8.21413 9.16667 8.68044 9.16667 9.16667C9.16667 9.6529 9.35982 10.1192 9.70364 10.463C10.0475 10.8069 10.5138 11 11 11C11.4862 11 11.9525 10.8069 12.2964 10.463C12.6402 10.1192 12.8333 9.6529 12.8333 9.16667C12.8333 8.68044 12.6402 8.21413 12.2964 7.87031C11.9525 7.52649 11.4862 7.33334 11 7.33334ZM7.33333 9.16667C7.33333 8.19421 7.71964 7.26158 8.40728 6.57395C9.09491 5.88631 10.0275 5.50001 11 5.50001C11.9725 5.50001 12.9051 5.88631 13.5927 6.57395C14.2804 7.26158 14.6667 8.19421 14.6667 9.16667C14.6667 10.1391 14.2804 11.0718 13.5927 11.7594C12.9051 12.447 11.9725 12.8333 11 12.8333C10.0275 12.8333 9.09491 12.447 8.40728 11.7594C7.71964 11.0718 7.33333 10.1391 7.33333 9.16667Z" fill="#040404"/>
</svg>
